<?xml version="1.0" encoding="UTF-8"?>
<!DOCTYPE svg PUBLIC "-//W3C//DTD SVG 1.1//EN" "http://www.w3.org/Graphics/SVG/1.1/DTD/svg11.dtd">
<svg xmlns="http://www.w3.org/2000/svg" version="1.1" width="128px" height="128px" style="shape-rendering:geometricPrecision; text-rendering:geometricPrecision; image-rendering:optimizeQuality; fill-rule:evenodd; clip-rule:evenodd" xmlns:xlink="http://www.w3.org/1999/xlink">
<g><path style="opacity:1" fill="#a9aaa9" d="M 38.5,-0.5 C 54.5,-0.5 70.5,-0.5 86.5,-0.5C 86.5,4.83333 86.5,10.1667 86.5,15.5C 86.5,18.1667 86.5,20.8333 86.5,23.5C 70.5,23.5 54.5,23.5 38.5,23.5C 38.5,20.8333 38.5,18.1667 38.5,15.5C 38.5,10.1667 38.5,4.83333 38.5,-0.5 Z"/></g>
<g><path style="opacity:0.998" fill="#e7af7f" d="M 23.5,15.5 C 23.5,38.5 23.5,61.5 23.5,84.5C 15.1508,85.3344 12.3175,89.6678 15,97.5C 18.0477,101.276 21.8811,103.942 26.5,105.5C 28.1556,109.748 26.6556,111.748 22,111.5C 19.3631,111.343 16.8631,110.677 14.5,109.5C 13.359,111.421 13.1923,113.421 14,115.5C 18.7477,116.635 23.581,116.802 28.5,116C 35.5384,111.814 36.2051,106.814 30.5,101C 27.0879,99.5455 23.9212,97.7121 21,95.5C 19.9231,92.7383 20.7564,91.0717 23.5,90.5C 23.5,92.1667 23.5,93.8333 23.5,95.5C 28.5,95.5 33.5,95.5 38.5,95.5C 37.8887,101.434 38.722,107.1 41,112.5C 43.0652,115.876 46.0652,117.209 50,116.5C 57.4423,116.729 61.4423,113.062 62,105.5C 62.4983,102.183 62.665,98.8499 62.5,95.5C 63.8333,95.5 65.1667,95.5 66.5,95.5C 66.5,102.5 66.5,109.5 66.5,116.5C 68.5,116.5 70.5,116.5 72.5,116.5C 72.5,112.833 72.5,109.167 72.5,105.5C 74.5,105.5 76.5,105.5 78.5,105.5C 79.3371,109.176 80.6704,112.676 82.5,116C 84.8333,116.667 87.1667,116.667 89.5,116C 87.2286,112.124 85.2286,108.124 83.5,104C 86.0723,101.687 87.739,98.8539 88.5,95.5C 92.5,95.5 96.5,95.5 100.5,95.5C 100.5,102.5 100.5,109.5 100.5,116.5C 102.5,116.5 104.5,116.5 106.5,116.5C 106.5,107.833 106.5,99.1667 106.5,90.5C 109.5,90.5 112.5,90.5 115.5,90.5C 115.5,88.8333 115.5,87.1667 115.5,85.5C 107.5,85.5 99.5,85.5 91.5,85.5C 95.2984,84.5166 99.2984,84.1832 103.5,84.5C 103.5,61.5 103.5,38.5 103.5,15.5C 108.975,14.9193 114.142,15.5859 119,17.5C 119.667,53.5 119.667,89.5 119,125.5C 118.283,126.044 117.783,126.711 117.5,127.5C 81.5,127.5 45.5,127.5 9.5,127.5C 9.21719,126.711 8.71719,126.044 8,125.5C 7.33333,89.5 7.33333,53.5 8,17.5C 8.5,17 9,16.5 9.5,16C 14.1548,15.5008 18.8215,15.3342 23.5,15.5 Z"/></g>
<g><path style="opacity:1" fill="#fefefe" d="M 23.5,15.5 C 28.5,15.5 33.5,15.5 38.5,15.5C 38.5,18.1667 38.5,20.8333 38.5,23.5C 54.5,23.5 70.5,23.5 86.5,23.5C 86.5,20.8333 86.5,18.1667 86.5,15.5C 92.1667,15.5 97.8333,15.5 103.5,15.5C 103.5,38.5 103.5,61.5 103.5,84.5C 99.2984,84.1832 95.2984,84.5166 91.5,85.5C 91.5,87.1667 91.5,88.8333 91.5,90.5C 94.5,90.5 97.5,90.5 100.5,90.5C 100.5,92.1667 100.5,93.8333 100.5,95.5C 96.5,95.5 92.5,95.5 88.5,95.5C 88.655,90.9774 86.655,87.8107 82.5,86C 77.1771,85.5006 71.8437,85.334 66.5,85.5C 66.5,88.8333 66.5,92.1667 66.5,95.5C 65.1667,95.5 63.8333,95.5 62.5,95.5C 59.6446,85.4279 53.3112,82.4279 43.5,86.5C 40.541,88.7899 38.8743,91.7899 38.5,95.5C 33.5,95.5 28.5,95.5 23.5,95.5C 23.5,93.8333 23.5,92.1667 23.5,90.5C 25.9541,90.3205 28.1208,90.9872 30,92.5C 34.3369,90.5253 34.5036,88.3586 30.5,86C 28.26,85.023 25.9267,84.523 23.5,84.5C 23.5,61.5 23.5,38.5 23.5,15.5 Z"/></g>
<g><path style="opacity:1" fill="#878887" d="M 38.5,39.5 C 54.5,39.5 70.5,39.5 86.5,39.5C 86.5,42.1667 86.5,44.8333 86.5,47.5C 70.5,47.5 54.5,47.5 38.5,47.5C 38.5,44.8333 38.5,42.1667 38.5,39.5 Z"/></g>
<g><path style="opacity:1" fill="#878887" d="M 38.5,63.5 C 54.5,63.5 70.5,63.5 86.5,63.5C 86.5,66.1667 86.5,68.8333 86.5,71.5C 70.5,71.5 54.5,71.5 38.5,71.5C 38.5,68.8333 38.5,66.1667 38.5,63.5 Z"/></g>
<g><path style="opacity:1" fill="#474543" d="M 23.5,84.5 C 25.9267,84.523 28.26,85.023 30.5,86C 34.5036,88.3586 34.3369,90.5253 30,92.5C 28.1208,90.9872 25.9541,90.3205 23.5,90.5C 20.7564,91.0717 19.9231,92.7383 21,95.5C 23.9212,97.7121 27.0879,99.5455 30.5,101C 36.2051,106.814 35.5384,111.814 28.5,116C 23.581,116.802 18.7477,116.635 14,115.5C 13.1923,113.421 13.359,111.421 14.5,109.5C 16.8631,110.677 19.3631,111.343 22,111.5C 26.6556,111.748 28.1556,109.748 26.5,105.5C 21.8811,103.942 18.0477,101.276 15,97.5C 12.3175,89.6678 15.1508,85.3344 23.5,84.5 Z"/></g>
<g><path style="opacity:1" fill="#464544" d="M 62.5,95.5 C 62.665,98.8499 62.4983,102.183 62,105.5C 61.4423,113.062 57.4423,116.729 50,116.5C 46.0652,117.209 43.0652,115.876 41,112.5C 38.722,107.1 37.8887,101.434 38.5,95.5C 38.8743,91.7899 40.541,88.7899 43.5,86.5C 53.3112,82.4279 59.6446,85.4279 62.5,95.5 Z"/></g>
<g><path style="opacity:1" fill="#454443" d="M 88.5,95.5 C 87.739,98.8539 86.0723,101.687 83.5,104C 85.2286,108.124 87.2286,112.124 89.5,116C 87.1667,116.667 84.8333,116.667 82.5,116C 80.6704,112.676 79.3371,109.176 78.5,105.5C 76.5,105.5 74.5,105.5 72.5,105.5C 72.5,109.167 72.5,112.833 72.5,116.5C 70.5,116.5 68.5,116.5 66.5,116.5C 66.5,109.5 66.5,102.5 66.5,95.5C 66.5,92.1667 66.5,88.8333 66.5,85.5C 71.8437,85.334 77.1771,85.5006 82.5,86C 86.655,87.8107 88.655,90.9774 88.5,95.5 Z"/></g>
<g><path style="opacity:1" fill="#3f403f" d="M 91.5,85.5 C 99.5,85.5 107.5,85.5 115.5,85.5C 115.5,87.1667 115.5,88.8333 115.5,90.5C 112.5,90.5 109.5,90.5 106.5,90.5C 106.5,99.1667 106.5,107.833 106.5,116.5C 104.5,116.5 102.5,116.5 100.5,116.5C 100.5,109.5 100.5,102.5 100.5,95.5C 100.5,93.8333 100.5,92.1667 100.5,90.5C 97.5,90.5 94.5,90.5 91.5,90.5C 91.5,88.8333 91.5,87.1667 91.5,85.5 Z"/></g>
<g><path style="opacity:1" fill="#f5f5f5" d="M 55.5,95.5 C 51.9581,95.8128 48.6248,95.4794 45.5,94.5C 46.8276,90.746 49.4942,89.5793 53.5,91C 54.5822,92.3297 55.2488,93.8297 55.5,95.5 Z"/></g>
<g><path style="opacity:1" fill="#fdfdfd" d="M 81.5,95.5 C 78.5,95.5 75.5,95.5 72.5,95.5C 72.5,93.8333 72.5,92.1667 72.5,90.5C 74.8568,90.3367 77.1902,90.5034 79.5,91C 81.0368,92.1096 81.7035,93.6096 81.5,95.5 Z"/></g>
<g><path style="opacity:1" fill="#e0aa7c" d="M 45.5,94.5 C 48.6248,95.4794 51.9581,95.8128 55.5,95.5C 56.7277,99.723 56.5611,104.056 55,108.5C 50.6075,112.955 47.2742,112.288 45,106.5C 44.1881,102.311 44.3547,98.3112 45.5,94.5 Z"/></g>
<g><path style="opacity:1" fill="#e7af7f" d="M 72.5,95.5 C 75.5,95.5 78.5,95.5 81.5,95.5C 81.4894,97.0174 80.8228,98.1841 79.5,99C 77.1902,99.4966 74.8568,99.6633 72.5,99.5C 72.5,98.1667 72.5,96.8333 72.5,95.5 Z"/></g>
</svg>
